HIERARCHY
ROOT pelvis
{
  OFFSET 0 100 0
  CHANNELS 6 Xposition Yposition Zposition Zrotation Xrotation Yrotation
  JOINT pelvis_right_femur
  {
    OFFSET -10.78128 -3.44521 -0.5502486
    CHANNELS 3 Zrotation Xrotation Yrotation
    JOINT right_femur_tibia
    {
      OFFSET -0.8047443 -44.0398 -0.1307829
      CHANNELS 3 Zrotation Xrotation Yrotation
      JOINT right_tibia_foot
      {
        OFFSET 3.006224 -47.83518 -5
        CHANNELS 3 Zrotation Xrotation Yrotation
        End Site
        {
          OFFSET 0 -5 15
        }
      }
    }
  }
  JOINT pelvis_left_femur
  {
    OFFSET 10.78128 -3.44521 -0.5502486
    CHANNELS 3 Zrotation Xrotation Yrotation
    JOINT left_femur_tibia
    {
      OFFSET 0.8047443 -44.0398 -0.1307829
      CHANNELS 3 Zrotation Xrotation Yrotation
      JOINT left_tibia_foot
      {
        OFFSET -4.370144 -48.10324 -4.275266
        CHANNELS 3 Zrotation Xrotation Yrotation
        End Site
        {
          OFFSET 0 -5 15
        }
      }
    }
  }
  JOINT pelvis_spine1
  {
    OFFSET 0 6.468898 -3.129235
    CHANNELS 3 Zrotation Xrotation Yrotation
    JOINT spine1
    {
      OFFSET 0 23.15396 4.99043
      CHANNELS 3 Zrotation Xrotation Yrotation
      JOINT spine2
      {
        OFFSET 0 20.79997 -5.064912
        CHANNELS 3 Zrotation Xrotation Yrotation
        JOINT neck
        {
          OFFSET 0 14.38658 9.616178
          CHANNELS 3 Zrotation Xrotation Yrotation
          End Site
          {
            OFFSET 0 20 0
          }
        }
      }
      JOINT right_manubrium
      {
        OFFSET -5.722621 16.35077 3.967754
        CHANNELS 3 Zrotation Xrotation Yrotation
        JOINT right_clavicle
        {
          OFFSET -13.16364 1.694482 -4.693211
          CHANNELS 3 Zrotation Xrotation Yrotation
          JOINT right_humerus
          {
            OFFSET -28.5034 -0.3100689 -2.792744
            CHANNELS 3 Zrotation Xrotation Yrotation
            JOINT right_radius
            {
              OFFSET -25.15693 0.02248979 -1.271978
              CHANNELS 3 Zrotation Xrotation Yrotation
              End Site
              {
                OFFSET -15 0 0
              }
            }
          }
        }
      }
      JOINT left_manubrium
      {
        OFFSET 5.722621 16.35077 3.967754
        CHANNELS 3 Zrotation Xrotation Yrotation
        JOINT left_clavicle
        {
          OFFSET 13.16364 1.694482 -4.693211
          CHANNELS 3 Zrotation Xrotation Yrotation
          JOINT left_humerus
          {
            OFFSET 29.39168 -1.063119 -2.237045
            CHANNELS 3 Zrotation Xrotation Yrotation
            JOINT left_radius
            {
              OFFSET 24.59957 -0.9528479 0.9047498
              CHANNELS 3 Zrotation Xrotation Yrotation
              End Site
              {
                OFFSET 15 -0 -0
              }
            }
          }
        }
      }
    }
  }
}
MOTION
Frames: 17
Frame Time: 0.0416666666667
-502.8006 105.3435 2624.614 -7.255882 -11.16288 -40.75965 -2.193099 11.60653 -2.479306 -0 53.28221 -0 -19.55157 16.93543 6.919446 -5.703777 -0.3979328 -17.46263 -0 16.78728 -0 -4.032915 -9.375306 20.1481 -1.374322 -2.901841 6.955272 -2.070842 14.58732 -4.668827 -0.8220106 20.27575 7.580152 9.699385 -12.20212 0.4258061 5.794144 -21.9819 12.24204 83.38053 27.63057 -13.18616 -0 0 21.91147 -25.12611 10.29153 10.95543 7.703686 -28.36293 -9.986555 -92.66721 5.512459 26.01993 0 0 -8.970504 11.31809 11.44297 0.284428
-505.3441 106.4577 2628.772 -7.61475 -10.76791 -40.12375 -1.20829 4.770897 -2.518884 -0 54.57429 -0 -19.4891 15.48316 5.570925 -5.11899 3.850577 -16.83806 -0 15.14492 -0 -3.045573 -11.0388 19.56129 -1.496996 -2.920866 6.698405 -1.896593 14.83594 -5.30183 -0.9368103 20.06505 7.583399 9.889754 -12.33197 0.08746444 5.801347 -21.32114 12.24021 84.18671 27.76498 -14.88007 -0 0 21.06406 -24.99871 10.68153 10.08665 8.395131 -29.3899 -10.11882 -91.55315 5.231564 23.57238 0 0 -12.60237 11.79875 11.15681 -0.8187987
-507.621 107.2215 2632.432 -7.411351 -9.928445 -39.50597 -0.3747648 -1.404903 -2.888589 -0 51.14252 -0 -18.61931 11.35293 3.804493 -4.727407 7.319955 -16.2494 -0 12.86412 -0 -2.65463 -13.25439 18.73051 -1.632569 -2.896593 6.327272 -1.773207 14.91957 -5.837519 -0.9878278 19.89029 7.636954 10.04314 -12.56369 -0.08243976 5.804955 -20.58157 12.18448 84.84388 27.99937 -16.29842 -0 0 20.20748 -25.02632 11.0759 9.458326 9.192533 -30.18148 -10.05205 -90.38452 5.035018 20.87378 0 0 -16.11556 12.37784 11.0133 -2.112795
-509.7305 107.5293 2635.731 -6.666857 -8.867597 -38.9328 0.09079592 -6.560911 -3.490155 -0 44.9086 -0 -17.40985 6.561861 2.33825 -4.691584 9.892685 -15.99038 -0 10.59046 -0 -2.629831 -15.71091 17.91041 -1.769158 -2.826697 5.858125 -1.706502 14.81986 -6.238203 -0.9695212 19.76341 7.753981 10.1527 -12.87063 -0.05596639 5.834963 -19.79603 12.08391 85.28557 28.34425 -17.33789 -0 0 19.38345 -25.18884 11.4856 9.120956 10.03627 -30.66864 -9.777443 -89.24286 4.952834 18.10152 0 0 -19.2335 13.01475 11.04687 -3.48909
-511.7586 107.3825 2638.811 -5.584149 -7.68834 -38.4273 0.2994869 -10.97589 -4.115348 -0 37.80927 -0 -16.11451 2.462663 1.426527 -4.921128 11.67247 -15.95453 -0 8.715242 -0 -2.42846 -17.96931 17.32485 -1.89618 -2.709188 5.316528 -1.687953 14.54496 -6.495042 -0.8841987 19.69343 7.934959 10.21448 -13.22361 0.1689034 5.908714 -18.98911 11.95104 85.4934 28.80131 -17.96633 -0 0 18.60053 -25.43308 11.92311 9.060847 10.85918 -30.82754 -9.316137 -88.187 5.011065 15.40242 0 0 -21.77698 13.66804 11.26874 -4.84924
-513.776 106.8393 2641.805 -4.386367 -6.461565 -37.99558 0.4314263 -14.96187 -4.622727 -0 31.00722 -0 -14.86269 -0.3962908 1.030423 -5.278171 12.87071 -15.94275 -0 7.418475 -0 -1.684492 -19.74582 17.07798 -2.005915 -2.54526 4.736583 -1.696978 14.12438 -6.624544 -0.7424584 19.68329 8.166224 10.2249 -13.59793 0.5686131 6.023644 -18.18354 11.79869 85.49302 29.35766 -18.21417 -0 0 17.84806 -25.68536 12.39177 9.212736 11.59705 -30.67936 -8.712623 -87.25097 5.22175 12.88951 0 0 -23.68139 14.29942 11.65838 -6.114484
-515.8449 105.9807 2644.825 -3.234247 -5.253345 -37.62381 0.612955 -18.65732 -4.972507 -0 24.98309 -0 -13.7451 -1.988941 1.007045 -5.663662 13.70096 -15.80715 -0 6.779691 -0 -0.3159805 -20.9345 17.14795 -2.094093 -2.341228 4.156405 -1.710188 13.60186 -6.656062 -0.5603776 19.72979 8.424235 10.18233 -13.9738 1.100329 6.162867 -17.40376 11.63839 85.33627 29.98586 -18.15017 -0 0 17.1134 -25.87483 12.88117 9.489314 12.19857 -30.27792 -8.024218 -86.45144 5.578361 10.64818 0 0 -24.96782 14.87418 12.16975 -7.22504
-518.0239 104.8957 2647.966 -2.226686 -4.123586 -37.28793 0.9120263 -22.05255 -5.176716 -0 19.86529 -0 -12.83312 -2.514094 1.204209 -6.020538 14.33022 -15.46679 -0 6.866993 -0 1.565381 -21.52515 17.4315 -2.159587 -2.108082 3.611415 -1.710746 13.02767 -6.619102 -0.3551918 19.82593 8.682334 10.08977 -14.33425 1.711775 6.3059 -16.67468 11.48001 85.08165 30.64892 -17.85616 -0 0 16.39281 -25.95426 13.36921 9.809958 12.63223 -29.69223 -7.309904 -85.79615 6.057966 8.739647 0 0 -25.69944 15.3625 12.74708 -8.138742
-520.3699 103.6807 2651.312 -1.428058 -3.126516 -36.96488 1.365104 -25.04819 -5.251688 -0 15.67172 -0 -12.1783 -2.227427 1.489151 -6.315108 14.86775 -14.88664 -0 7.787416 -0 3.747698 -21.53869 17.787 -2.203554 -1.859329 3.129164 -1.692942 12.45111 -6.53566 -0.1417786 19.9638 8.916446 9.955435 -14.66333 2.350873 6.436813 -16.01848 11.33145 84.78063 31.30718 -17.40837 -0 0 15.69428 -25.90904 13.82784 10.11768 12.88771 -28.99084 -6.621646 -85.28943 6.627321 7.202323 0 0 -25.94672 15.74158 13.33983 -8.830586
-522.9373 102.444 2654.932 -0.8908784 -2.31561 -36.6415 1.997411 -27.48732 -5.193583 -0 12.43074 -0 -11.81209 -1.379145 1.747394 -6.520738 15.36336 -14.06147 -0 9.708862 -0 5.963939 -20.9986 18.05929 -2.228394 -1.608523 2.727554 -1.661786 11.91476 -6.417843 0.06905978 20.13676 9.108133 9.791128 -14.94526 2.972525 6.547285 -15.45226 11.19833 84.47085 31.92417 -16.86665 -0 0 15.03541 -25.75453 14.22891 10.38343 12.97215 -28.23146 -5.999735 -84.935 7.249641 6.054664 0 0 -25.76789 15.99716 13.91146 -9.291204
-525.7732 101.3104 2658.879 -0.6656524 -1.74727 -36.32246 2.828856 -29.16876 -4.970933 -0 10.22226 -0 -11.74499 -0.2043711 1.874332 -6.607332 15.79883 -13.01208 -0 12.8586 -0 7.907871 -19.92385 18.09525 -2.23686 -1.367438 2.41589 -1.629864 11.4511 -6.268708 0.2707735 20.34058 9.245292 9.609889 -15.16466 3.541935 6.635766 -14.9877 11.0839 84.17449 32.47008 -16.26991 -0 0 14.43969 -25.52705 14.5482 10.6024 12.90391 -27.4562 -5.471778 -84.73694 7.889944 5.300462 0 0 -25.2016 16.12326 14.44144 -9.52358
-528.9085 100.423 2663.185 -0.7962159 -1.477141 -36.03849 3.864013 -29.86251 -4.53078 -0 9.163283 -0 -11.96219 1.069618 1.773325 -6.535971 16.06658 -11.79036 -0 17.48856 -0 9.254994 -18.32994 17.7645 -2.231429 -1.145199 2.197297 -1.613653 11.08145 -6.084336 0.4603634 20.57347 9.321467 9.423961 -15.30733 4.035228 6.70471 -14.63222 10.98906 83.89953 32.92293 -15.63589 -0 0 13.93321 -25.27385 14.76702 10.78718 12.70627 -26.69112 -5.053979 -84.69989 8.518173 4.935341 0 0 -24.26705 16.12068 14.92279 -9.53884
-532.3446 99.93296 2667.843 -1.29903 -1.543601 -35.85271 5.065719 -29.34734 -3.821237 -0 9.335682 -0 -12.41654 2.219062 1.370774 -6.260687 15.94055 -10.48426 -0 23.78441 -0 9.721574 -16.23416 16.99635 -2.213954 -0.9482949 2.071318 -1.630386 10.81633 -5.856063 0.6373244 20.83522 9.334753 9.243623 -15.36179 4.438498 6.757353 -14.39121 10.91275 83.64245 33.26784 -14.96345 -0 0 13.54282 -25.04479 14.87156 10.96113 12.40289 -25.94853 -4.753325 -84.82885 9.110168 4.952933 0 0 -22.96832 15.99509 15.35728 -9.352271
-536.0377 99.97147 2672.79 -2.128071 -1.938648 -35.85628 6.320831 -27.48044 -2.831903 -0 10.64926 -0 -13.02548 3.031864 0.6538667 -5.743815 15.06444 -9.209322 -0 31.6971 -0 9.179559 -13.6756 15.83209 -2.185522 -0.7812176 2.036019 -1.69566 10.65657 -5.57264 0.8024867 21.12556 9.286944 9.076868 -15.32122 4.746243 6.794811 -14.2706 10.85245 83.3912 33.4954 -14.23646 -0 0 13.29576 -24.88669 14.85107 11.15317 12.01538 -25.23061 -4.569724 -85.12863 9.646901 5.34967 0 0 -21.30128 15.75542 15.74992 -8.980439
-539.8916 100.6003 2677.899 -3.139836 -2.583213 -36.14043 7.42515 -24.28155 -1.641581 -0 12.67699 -0 -13.68131 3.329103 -0.2816857 -4.989772 13.01071 -8.074006 -0 40.7175 -0 7.79205 -10.7743 14.46726 -2.146464 -0.6475326 2.08934 -1.821405 10.59445 -5.222636 0.9567868 21.44179 9.183273 8.92964 -15.18603 4.959774 6.813966 -14.27934 10.80495 83.12838 33.59986 -13.42914 -0 0 13.22024 -24.83961 14.69584 11.39411 11.5629 -24.53394 -4.497573 -85.60295 10.11251 6.127459 0 0 -19.26281 15.41317 16.10348 -8.43992
-543.7741 101.7594 2682.993 -4.095008 -3.342655 -36.74349 8.126065 -19.97504 -0.4436611 -0 14.60289 -0 -14.27637 2.995617 -1.220018 -4.078851 9.467282 -7.127588 -0 49.71321 -0 6.046728 -7.82553 13.2316 -2.096519 -0.5511361 2.229571 -2.013697 10.61486 -4.797624 1.099917 21.7758 9.032776 8.806328 -14.96662 5.085797 6.806591 -14.43116 10.7673 82.83453 33.57769 -12.51308 -0 0 13.34611 -24.93357 14.39659 11.71343 11.06302 -23.85454 -4.526659 -86.25257 10.4917 7.29336 0 0 -16.86265 14.9829 16.41377 -7.747788
-547.5598 103.2519 2687.897 -4.740869 -4.095267 -37.60551 8.240955 -14.93904 0.4995105 -0 15.48755 -0 -14.72167 2.01846 -1.902998 -3.143992 4.507753 -6.332669 -0 57.03393 -0 4.553485 -5.318798 12.47206 -2.035167 -0.4973645 2.454862 -2.270103 10.69699 -4.296564 1.228875 22.11121 8.848891 8.710172 -14.68515 5.134899 6.760493 -14.74428 10.73797 82.49213 33.42706 -11.46711 -0 0 13.70363 -25.18423 13.94639 12.13498 10.53318 -23.19358 -4.642812 -87.07199 10.76733 8.85481 0 0 -14.13747 14.4835 16.66664 -6.92365
